<?xml version="1.0" encoding="utf-8"?>
<!-- Generator: Adobe Illustrator 26.2.1, SVG Export Plug-In . SVG Version: 6.00 Build 0)  -->
<svg version="1.1" id="Capa_1" xmlns="http://www.w3.org/2000/svg" xmlns:xlink="http://www.w3.org/1999/xlink" x="0px" y="0px"
	 viewBox="0 0 410 404" style="enable-background:new 0 0 410 404;" xml:space="preserve">
<style type="text/css">
	.st0{display:none;}
	.st1{display:inline;fill:url(#SVGID_1_);}
	.st2{display:inline;fill:url(#SVGID_00000031167116800964841880000001887500011123631769_);}
	.st3{fill:#33363A;}
	.st4{fill:#707275;}
	.st5{fill:#76787B;}
	.st6{fill:#858789;}
	.st7{fill:#949698;}
	.st8{fill:#D7E4E9;}
	.st9{fill:#FE1A1A;}
	.st10{fill:#FEFEFE;}
	.st11{fill:#A6BAC0;}
</style>
<g id="Capa_1_00000109031967277942753980000013220716025369825420_" class="st0">
	
		<linearGradient id="SVGID_1_" gradientUnits="userSpaceOnUse" x1="107.0514" y1="576.5925" x2="336.0511" y2="887.5926" gradientTransform="matrix(1 0 0 1 0 -618)">
		<stop  offset="0" style="stop-color:#41D1FF"/>
		<stop  offset="1" style="stop-color:#BD34FE"/>
	</linearGradient>
	<path class="st1" d="M399.6,59.5l-184,329c-3.8,6.8-13.6,6.8-17.4,0.1L10.6,59.6C6.4,52.2,12.7,43.3,21,44.8l184.2,32.9
		c1.2,0.2,2.4,0.2,3.6,0l180.3-32.9C397.4,43.3,403.8,52.1,399.6,59.5z"/>
	
		<linearGradient id="SVGID_00000078766111936701287150000003243127953821095050_" gradientUnits="userSpaceOnUse" x1="215.0266" y1="623.8479" x2="256.4516" y2="908.0188" gradientTransform="matrix(1 0 0 1 0 -618)">
		<stop  offset="0" style="stop-color:#FFEA83"/>
		<stop  offset="8.330000e-02" style="stop-color:#FFDD35"/>
		<stop  offset="1" style="stop-color:#FFA800"/>
	</linearGradient>
	<path style="display:inline;fill:url(#SVGID_00000078766111936701287150000003243127953821095050_);" d="M293,1.6L156.8,28.3
		c-2.2,0.4-3.9,2.3-4,4.6l-8.4,141.5c-0.2,3.3,2.9,5.9,6.1,5.2l37.9-8.8c3.6-0.8,6.8,2.3,6,5.9l-11.3,55.1c-0.8,3.7,2.7,6.9,6.4,5.8
		l23.4-7.1c3.6-1.1,7.1,2.1,6.4,5.8l-17.9,86.6c-1.1,5.4,6.1,8.4,9.1,3.7l2-3.1l110.9-221.4c1.9-3.7-1.4-7.9-5.4-7.2l-39,7.5
		c-3.7,0.7-6.8-2.7-5.8-6.3l25.5-88.3C299.8,4.3,296.6,0.9,293,1.6z"/>
</g>
<g id="Capa_2_00000127046487475719481770000004848279009622321814_">
	<g>
		<path class="st3" d="M403.9,214.8c-1.7,4.2-1.5,8.6-2.1,13c-11.1,78.2-70.2,143.6-146.9,162.4c-97.9,24-196.8-28.4-232-122.9
			c-28.3-75.9-5.8-163.3,55.6-216c32.3-27.8,69.6-43.7,112-47.6c0.6-0.1,1.3,0.1,1.5-0.8c1.3,0,2.6,0,3.8,0c0.5,0.5,1.1,0.4,1.7,0.4
			c0.7-0.1,1.5,0.2,2.1-0.4c5.1,0,10.2,0,15.4,0c0.6,0.6,1.4,0.3,2.1,0.4c0.6,0,1.2,0.1,1.7-0.4c1,0,2.1,0,3.1,0
			c5.9,0.8,11.9,0.7,17.8,1.7c36.4,6.3,68.7,21.3,96.6,45.6c34.4,29.9,55.9,67.4,65.1,112c1.5,7.3,1.7,14.6,2.5,22c0,1,0,2.1,0,3.1
			c-0.5,0.5-0.4,1.1-0.4,1.7c0.1,0.7-0.2,1.5,0.4,2.1c0,5.6,0,11.3,0,16.9c-0.6,0.8-0.6,1.5,0,2.3
			C403.9,211.8,403.9,213.3,403.9,214.8z"/>
		<path class="st4" d="M199.7,2.9c-0.6,1-1.5,0.8-2.3,0.7c-0.2-0.2-0.3-0.3-0.2-0.5c0.1-0.1,0.2-0.2,0.2-0.2
			C198.1,2.9,198.9,2.9,199.7,2.9z"/>
		<path class="st4" d="M217.4,3.6c-0.9,0.1-1.8,0.3-2.3-0.7c0.8,0,1.5,0,2.3,0c0.2,0.1,0.3,0.3,0.3,0.4
			C217.5,3.5,217.4,3.6,217.4,3.6z"/>
		<path class="st5" d="M403.9,191c-1-0.6-0.8-1.5-0.7-2.4c0.2-0.3,0.5-0.3,0.7,0.1C403.9,189.5,403.9,190.3,403.9,191z"/>
		<path class="st5" d="M403.9,210.2c-1.1-0.8-1-1.5,0-2.3C403.9,208.7,403.9,209.5,403.9,210.2z"/>
		<path class="st6" d="M197.4,2.9c0,0.2,0,0.4,0,0.7c-0.6,0.1-1.2,0.1-1.5-0.7C196.3,2.9,196.9,2.9,197.4,2.9z"/>
		<path class="st6" d="M217.4,3.6c0-0.2,0-0.4,0-0.7c0.5,0,1,0,1.5,0C218.6,3.7,218,3.6,217.4,3.6z"/>
		<path class="st7" d="M403.9,188.7c-0.2,0-0.4,0-0.7-0.1c-0.1-0.6-0.2-1.3,0.7-1.5C403.9,187.7,403.9,188.2,403.9,188.7z"/>
		<path class="st8" d="M258.8,224.1c2.1-5.6,4.4-11.2,4.8-17.3c0.2-2.4,1.4-2.8,3.5-2.7c10.4,0.1,20.7,0.1,31.1,0.1
			c30.8,0,61.6,0.1,92.5-0.1c3.3,0,3.8,0.8,3.7,4.1c-0.8,15.8-3.5,31.2-8,46.3c-0.1,0.5-0.4,0.9-0.7,1.3c-4.5,8.6-9.9,16.6-16.2,24
			c-8.5,10-18.1,18.7-28.7,26.5c-28.3,20.8-60.4,32.6-94.8,38.3c-18.1,3-36.4,3.5-54.7,2.4c-26-1.5-51.2-7.2-75.2-17.1
			c-26-10.8-49-26-68-46.9c-7.5-8.2-13.9-17.2-18.9-27.2c-4-11-6-22.4-7.5-33.9c-0.6-5.1-0.8-10.2-1.3-15.3
			c-0.2-1.8,0.3-2.7,2.2-2.5c0.5,0.1,1,0,1.5,0c40.9,0,81.9,0,122.8-0.1c3,0,4.3,0.7,4.5,3.9c0.4,5.7,2.6,10.9,4.6,16.1
			c2.5,7.3,4.3,14.9,8.8,21.5C182,271.1,217,276,240.5,256c7.3-6.2,12.5-13.7,15.3-22.9C256.8,230.1,258,227.1,258.8,224.1z"/>
		<path class="st9" d="M394.4,191.8c-0.6-6.9-0.9-13.8-2-20.6c-1.6-9.2-3-18.4-6.5-27.1c-0.4-1.6-0.7-3.2-1.2-4.8
			c-11.1-32-29-59.5-54.9-81.3C280.5,16.7,224,2.3,161.7,18.3C94.8,35.5,50.8,78.7,28.6,144.1c0,0,0,0,0,0c0,0,0,0,0,0
			c-0.6,1.8-1.2,3.6-1.7,5.5c-3.6,13.6-5.9,27.4-6.5,41.5c-0.1,3,0.3,3.7,3.2,3.7c41.2-0.1,82.4-0.1,123.6,0c2.8,0,3.9-0.9,4.1-3.6
			c0.4-5.2,2.1-10,4.1-14.7c9.7-22.7,34.7-37,60.6-33.3c23.1,3.2,44.8,24.3,47.3,47.4c0.3,3.2,1.3,4.2,4.7,4.2
			c32.6-0.1,65.2-0.1,97.9-0.1c8.6,0,17.2-0.1,25.7,0C394,194.9,394.6,194.2,394.4,191.8z"/>
		<path class="st10" d="M29,255.7c2.5,0.6,2.7,3.2,3.7,4.9c9.2,15.3,21.1,28,34.8,39.3c19.2,15.9,40.9,26.9,64.3,34.6
			c15.3,5.1,31.1,8.3,47.3,10.2c12.8,1.5,25.5,1.5,38.2,1.3c18.4-0.4,36.4-3.4,54.2-8.1c15.1-4.1,29.6-9.7,43.4-16.8
			c19.6-10.1,36.9-23.2,51.7-39.5c6.8-7.5,12.6-15.7,17.4-24.6c0.3-0.5,0.1-2.1,1.6-1.2c-4.5,15.7-11.4,30.3-20.3,44
			c-29.3,44.9-70.1,73.9-122.9,83.4c-68.4,12.3-126.7-8.1-174.2-58.8c-17.3-18.5-29.6-40.3-37.9-64.2
			C29.8,258.7,29.5,257.2,29,255.7z"/>
		<path class="st8" d="M174.3,233.3c-13-12.9-17.3-28.4-12.7-45.9c4.6-17.7,16.3-29.3,34.1-33.8c17.4-4.4,32.8,0,45.5,12.8
			c-3.6,4.9-7.7,9.3-12.8,12.6c-1.7-0.4-2.8-1.8-4.1-2.7c-9.3-6.2-19.1-7.5-29.3-2.6c-10.6,5.1-15.7,14-16.3,25.4
			c-0.3,6.4,2,12.5,6,17.8c0.8,1.1,1.9,2.1,2.2,3.5C183.7,225.7,179.2,229.7,174.3,233.3z"/>
		<path class="st10" d="M174.3,233.3c3.7-4.5,7.9-8.6,12.3-12.4c2.1-0.4,3.2,1.3,4.7,2.2c12.4,8.1,27.2,5.8,36.5-3.8
			c9.1-9.4,11.2-23.8,3.2-36c-0.9-1.4-2.6-2.6-2.2-4.7c3.8-4.4,7.9-8.6,12.4-12.3c12.5,12.9,16.5,28.4,11.9,45.5
			c-4.8,17.5-16.4,29-34,33.5C202.1,249.7,187,245.6,174.3,233.3z"/>
		<path class="st11" d="M258.8,224.1c-0.8,9.4-4.4,17.8-10.3,25.1c-11.1,14-25.9,20.8-43.7,20.1c-12-0.5-22.7-4.9-31.9-13
			c-9.2-8.1-14.5-18.2-17-30c-0.1-0.7,0-1.5-0.1-2.3c6.1,11.4,14.5,20.7,26.3,26.4c28.4,13.6,60.7,3,75.6-24.7
			C258.1,225.1,258.5,224.6,258.8,224.1z"/>
		<path class="st3" d="M228.8,178.8c7.1,8.4,10.1,17.9,7,28.8c-5.9,20.6-30.4,28.4-47,15c-0.7-0.6-1.4-1.1-2.1-1.6
			c-7.6-8.4-10.9-18-7.8-29.2c6-21.4,30.9-29,47.9-14.7C227.4,177.7,228.1,178.2,228.8,178.8z"/>
		<path class="st8" d="M192.7,185.6c7.9-8.4,20.8-8.6,28.9-0.7c8.2,8,8,21.2-0.4,29.2c-1.1-0.1-1.8-0.9-2.5-1.7
			c-8.1-8.1-16.3-16.2-24.4-24.4C193.6,187.4,192.8,186.7,192.7,185.6z"/>
		<path class="st10" d="M192.7,185.6c9.9,9.1,19.4,18.7,28.6,28.6c-8.1,7.7-20.7,7.5-28.4-0.4C185.1,206,185.1,193.7,192.7,185.6z"
			/>
	</g>
</g>
</svg>
