<?xml version="1.0" encoding="utf-8"?>
<!-- Generator: Adobe Illustrator 26.2.1, SVG Export Plug-In . SVG Version: 6.00 Build 0)  -->
<svg version="1.1" id="Layer_1" xmlns="http://www.w3.org/2000/svg" xmlns:xlink="http://www.w3.org/1999/xlink" x="0px" y="0px"
	 viewBox="0 0 2500 1085.9" style="enable-background:new 0 0 2500 1085.9;" xml:space="preserve">
<style type="text/css">
	.st0{fill:url(#polygon16_00000049185641900062762360000012557308929719629719_);}
	.st1{fill:#0071B9;}
	.st2{fill:url(#polygon25_00000067196959583694708010000001183548405559148953_);}
	.st3{fill:#1D2C5E;}
	.st4{fill:url(#polygon36_00000164511950187649195630000003028924254652886170_);}
	.st5{fill:url(#polygon43_00000181775061732162923030000011655851069784614294_);}
	.st6{fill:#312370;}
	.st7{fill:#21386E;}
	.st8{fill:url(#polygon56_00000170986324699784138130000013602124193066960295_);}
	.st9{fill:url(#path69_00000152248039031853484110000014522719460457484968_);}
	.st10{fill:url(#polygon78_00000160155561046585584430000009912763033928192429_);}
	.st11{fill:#FFCB05;}
	.st12{fill:#7D7F68;}
	.st13{fill:#C7A008;}
	.st14{fill:#3C5AA6;}
	.st15{fill:#3567B0;}
	.st16{fill:#1E2D5F;}
	.st17{fill:#3466AF;}
	.st18{fill:url(#path183_00000135692317142686806030000015036739454944462245_);}
	.st19{fill:url(#path196_00000142167945460259519080000005823941502385156249_);}
	.st20{fill:#FFFFFF;}
</style>
<linearGradient id="polygon16_00000141414077635099219670000001927230630934819977_" gradientUnits="userSpaceOnUse" x1="1515.2117" y1="-551.094" x2="1505.1937" y2="-532.4259" gradientTransform="matrix(9.2764 0 0 -9.2764 -13932.583 -4615.3584)">
	<stop  offset="0" style="stop-color:#0070B6"/>
	<stop  offset="1" style="stop-color:#1D2C5E"/>
</linearGradient>
<path id="polygon16" style="fill:url(#polygon16_00000141414077635099219670000001927230630934819977_);" d="M0,339.8l111.3,188.3
	l44.5-42.7L34.3,304.5L0,339.8z"/>
<path id="polygon18" class="st1" d="M1656.8,191.3l-4.6,25.1l52.9-17.6l-6.5-30.6L1656.8,191.3z"/>
<linearGradient id="polygon25_00000115496697577236605500000012374393380712336050_" gradientUnits="userSpaceOnUse" x1="1637.3912" y1="-512.9263" x2="1650.1062" y2="-499.3023" gradientTransform="matrix(9.2764 0 0 -9.2764 -13932.583 -4615.3584)">
	<stop  offset="0" style="stop-color:#0070B6"/>
	<stop  offset="1" style="stop-color:#1D2C5E"/>
</linearGradient>
<path id="polygon25" style="fill:url(#polygon25_00000115496697577236605500000012374393380712336050_);" d="M1345.1,21.6
	l-171.6,196.7l50.1-13.9L1386.8,0.2L1345.1,21.6z"/>
<path id="polygon27" class="st3" d="M2264.4,290.6l41.7-22.3l-12.1,105.8L2264.4,290.6z"/>
<path id="polygon29" class="st3" d="M2001.9,358.3l38,8.4l47.3-23.2l-41.7-15.8L2001.9,358.3z"/>
<linearGradient id="polygon36_00000075884639961777665590000017067365606327305374_" gradientUnits="userSpaceOnUse" x1="1581.9301" y1="-535.6584" x2="1580.4141" y2="-522.9203" gradientTransform="matrix(9.2764 0 0 -9.2764 -13932.583 -4615.3584)">
	<stop  offset="0" style="stop-color:#0070B6"/>
	<stop  offset="1" style="stop-color:#1D2C5E"/>
</linearGradient>
<path id="polygon36" style="fill:url(#polygon36_00000075884639961777665590000017067365606327305374_);" d="M710.6,247l5.6,121.5
	l52.9-20.4l-15.8-124.3L710.6,247z"/>
<linearGradient id="polygon43_00000121248683913416845430000004851577235117872293_" gradientUnits="userSpaceOnUse" x1="1720.8187" y1="-533.2062" x2="1720.2137" y2="-521.7082" gradientTransform="matrix(9.2764 0 0 -9.2764 -13932.583 -4615.3584)">
	<stop  offset="0" style="stop-color:#125D9E"/>
	<stop  offset="1" style="stop-color:#1D2C5E"/>
</linearGradient>
<path id="polygon43" style="fill:url(#polygon43_00000121248683913416845430000004851577235117872293_);" d="M2042.7,209.9
	l-41.7,23.2l0.9,125.2l42.7-21.3l13-61.2L2042.7,209.9z"/>
<path id="polygon45" class="st6" d="M2037.1,366.7l-46.4,411.9l74.2-14.8l13.9-419.3L2037.1,366.7z"/>
<path id="polygon47" class="st7" d="M2127.1,798l1.9,55.7l141.9,45.5l42.7-22.3l-140.1-108.5l-141-12.1l-41.7,22.3L2127.1,798z"/>
<path id="polygon49" class="st7" d="M1600.2,699.7l34.3-18.5l23.2,40.8l32.5-17.6l6.5,53.8l206.9,37.1l40.8-23.2l-284.8-173.5
	l-202.2,34.3l-39,38L1600.2,699.7z"/>
<linearGradient id="polygon56_00000134248269591108233560000007820210726171707279_" gradientUnits="userSpaceOnUse" x1="1678.3956" y1="-516.6326" x2="1665.0516" y2="-537.8606" gradientTransform="matrix(9.2764 0 0 -9.2764 -13932.583 -4615.3584)">
	<stop  offset="0" style="stop-color:#125D9E"/>
	<stop  offset="1" style="stop-color:#1D2C5E"/>
</linearGradient>
<path id="polygon56" style="fill:url(#polygon56_00000134248269591108233560000007820210726171707279_);" d="M1534.3,193.2
	l-41.7,23.2l-74.2,454.5l41.7-22.3l71.4-255.1L1534.3,193.2z"/>
<path id="polygon58" class="st3" d="M1204.1,254.4l-33.4,17.6l2.8,11.1l78.8-50.1L1218,196l-44.5,22.3L1204.1,254.4z"/>
<path id="polygon60" class="st7" d="M1294.1,791.5l-336.7-167l41.7-32.5l336.7,176.2L1294.1,791.5z"/>
<path id="polygon62" class="st3" d="M988.9,170l-51,96.5l53.8-15.8l39-103.9L988.9,170z"/>
<linearGradient id="path69_00000121260087383933973410000010312722310003353998_" gradientUnits="userSpaceOnUse" x1="1560.3615" y1="-550.6518" x2="1569.4595" y2="-568.5447" gradientTransform="matrix(9.2764 0 0 -9.2764 -13932.583 -4615.3584)">
	<stop  offset="0" style="stop-color:#105FA1"/>
	<stop  offset="1" style="stop-color:#1D2C5E"/>
</linearGradient>
<path id="path69" style="fill:url(#path69_00000121260087383933973410000010312722310003353998_);" d="M525,569.8l-42.7,29.7
	c0,0,9.3,48.2,21.3,81.6c12.1,33.4,39.9,60.3,39.9,60.3c18.5,17.6,39.9,30.6,64.9,38c47.3,13.9,101.1,4.6,147.5-25
	c12.1-7.4,28.8-19.5,39-29.7C749.5,752.6,525,569.8,525,569.8L525,569.8z"/>
<path id="polygon71" class="st3" d="M756,359.2l39,433.2l161.4-23.2l42.7-22.3L799.6,333.3l-40.8,13.9l-42.7,21.3L756,359.2z"/>
<linearGradient id="polygon78_00000182517554243682353060000017506715541300572058_" gradientUnits="userSpaceOnUse" x1="1525.9572" y1="-544.5815" x2="1536.4872" y2="-568.9916" gradientTransform="matrix(9.2764 0 0 -9.2764 -13932.583 -4615.3584)">
	<stop  offset="0" style="stop-color:#105FA1"/>
	<stop  offset="1" style="stop-color:#1D2C5E"/>
</linearGradient>
<path id="polygon78" style="fill:url(#polygon78_00000182517554243682353060000017506715541300572058_);" d="M153.1,509.5l180,407.2
	L503.7,862l41.7-27.8L191.1,463.1L146.6,490l-35.2,38L153.1,509.5z"/>
<path id="path80" class="st3" d="M1933.2,701.5l2.8,20.4c14.8-1.9,29.7-3.7,43.6-8.3c15.8-5.6,49.2-20.4,61.2-31.5
	C2035.2,683.9,1957.3,704.3,1933.2,701.5"/>
<path id="path82" class="st3" d="M1329.3,597.7l6.5,32.5c34.3-5.6,64-17.6,93.7-35.2c18.6-11.1,38-26.9,44.5-31.5
	C1469.4,566.1,1329.3,597.7,1329.3,597.7L1329.3,597.7z"/>
<g id="g84" transform="translate(-5.451 -1.686)">
	<path id="path86" class="st11" d="M385.3,879.6l-13-29.7L201.6,469.6l-3.7-7.4l-7.4,3.7l-5.6,2.8l-30.6,14.8
		c-4.6-7.4-12.1-20.4-16.7-28.8L69,338.8l-17.6-30.6L81,289.6c27.8-17.6,59.4-34.3,94.6-49.2c68.6-28.8,138.2-44.5,202.2-44.5
		c21.3,0,41.7,1.9,60.3,4.6c31.5,3.7,61.2,13.9,85.3,30.6c36.2,20.4,64.9,51.9,80.7,89.1c13,30.6,15.8,66.8,7.4,103.9l-4.6,22.3
		l18.5-13c12.1-9.3,25-16.7,39-22.3c24.1-10.2,49.2-15.8,74.2-15.8c24.1,0,46.4,4.6,66.8,13.9l13,5.6l-0.9-14.8l-5.6-62.1l-0.9-10.2
		l-9.3,2.8l-28.8,7.4l-4.6-105.8l211.5-67.7L978,247l15.8,3.7l46.4-88.1L1178.4,285l5.6,5.6l5.6-5.6c18.6-17.6,41.7-32.5,66.8-42.7
		l10.2-4.6l-7.4-9.3l-25.1-30.6L1392.7,15l83.5,124.3L1349.1,208l-27.8,14.8l32.5,0.9c60.3,0.9,114.1,26.9,150.3,71.4l13,16.7
		l8.3,10.2l-13.9,14.8l-9.3,10.2l-31.5,34.3l-5.6,6.5l6.5,5.6l29.7,26.9l11.1,10.2l2.8-14.8l11.1-70.5l2.8-18.5l2.8-18.5l16.7-104.8
		h157.7l0.9-7.4l2.8-17.6h137.3l33.4,209.6l1.9,13.9l11.1-8.4c13.9-10.2,28.8-17.6,44.5-24.1c21.3-8.4,42.7-12.1,64.9-12.1
		c26,0,51,5.6,72.4,17.6c0.9,0,0.9,0.9,2.8,1.9l10.2,3.7l0.9-11.1l2.8-23.2l0.9-7.4l-7.4-1.9l-27.8-6.5l-0.9-109.5l212.4,46.4
		l15.8,78.9h16.7l16.7-67.7l177.2,42.7l-181.8,546.4l-128.9-40.8l-0.9-50.1v-7.4l-7.4-0.9l-128.9-18.5l7.4-65.9l1.9-15.8l-13.9,7.4
		c-6.5,3.7-13,6.5-19.5,8.3c-21.3,8.3-42.7,12.1-64,12.1c-6.5,0-12.1,0-18.6-0.9l-11.1-0.9l1.9,11.1l9.3,57.5l-188.3-33.4
		l-10.2-85.3l-2.8-27.8l-13,24.1l-21.3,41.7l-39.9-73.3l-12.1-22.3l-3.7,25l-8.3,56.6l-165.1-26l13-77.9l2.8-17.6l-15.8,9.3
		c-26.9,15.8-58.4,28.8-94.6,37.1c-13,2.8-26,5.6-39.9,6.5l-7.4,0.9v155.8l-324.7-160.5l-12.1-5.6v151.2l-145.6,21.3l-6.5-65.9
		l-1.9-17.6l-13,12.1c-19.5,18.5-40.8,33.4-64,43.6c-24.1,10.2-49.2,15.8-73.3,15.8c-25,0-48.2-5.6-69.6-14.8
		c-39-18.5-67.7-52.9-79.8-96.5c-5.6-20.4-7.4-41.7-4.6-64l2.8-23.2l-16.7,16.7c-12.1,11.1-25,22.3-39,32.5l-4.6,3.7l1.9,5.6
		L532.8,798l8.3,33.4l-32.5,10.2l-91.8,29.7L385.3,879.6L385.3,879.6z M426.1,375.9c-4.6,0-9.3,0-14.8,0.9l-6.5,0.9l-9.3,1.9
		l2.8,9.3l1.9,5.6l26,86.3l2.8,8.4l3.7,12.1l9.3-8.4l6.5-5.6c26-23.2,34.3-46.4,28.8-76.1c-3.7-17.6-16.7-26-25-29.7
		C446.5,377.8,436.3,375.9,426.1,375.9L426.1,375.9z M1133,378.7l-16.7,15.8l-43.6,41.7l-9.3,9.3l12.1,4.6l46.4,17.6l13.9,5.6
		l-2.8-14.8c-3.7-19.5-4.6-39-2.8-57.5L1133,378.7z M1322.2,330.5c-17.6,0-35.2,7.4-47.3,21.3c-18.6,20.4-22.3,51-9.3,75.1l3.7,6.5
		l5.6,10.2l8.3-9.3l5.6-5.6l64-72.4l4.6-5.6l8.3-9.3l-11.1-4.6l-7.4-2.8C1338,332.3,1330.6,330.5,1322.2,330.5L1322.2,330.5z"/>
</g>
<path id="path88" class="st12" d="M1413.7,436.2l-1.9,1.9C1412.8,438.1,1413.7,437.2,1413.7,436.2z"/>
<path id="polygon90" class="st12" d="M1469.4,386.1l31.5-34.3l-11.1,11.1V362l-9.3,10.2l-31.5,33.4l29.7,26.9l5.6-33.4l14.8,13
	L1469.4,386.1z"/>
<path id="polygon92" class="st12" d="M1469.4,386.1l29.7,26l11.1-70.5l-9.3,10.2L1469.4,386.1z"/>
<path id="path94" class="st12" d="M1073.3,440.9"/>
<path id="path96" class="st13" d="M1249.5,470.6c2.8,2.8,0,0.9,2.8,2.8l19.5-13.9c-2.8-1.9-5.6-4.6-8.3-6.5
	c-27.8-26-20.4-83.5-2.8-115C1212.4,376.9,1215.2,436.2,1249.5,470.6"/>
<path id="path98" class="st13" d="M1484.2,503c-32.5,26.9-68.7,43.6-116.9,55.7c-10.2,2.8-21.3,4.6-30.6,4.6
	c-77,7.4-141-27.8-165.1-84.4c-2.8-6.5-5.6-13.9-7.4-21.3c-11.1-48.2-1.9-90.9,22.3-125.2c2.8-3.7,4.6-6.5,7.4-9.3
	c-0.9,0.9-2.8,1.9-3.7,2.8c-9.3,8.4-17.6,16.7-24.1,26.9c-24.1,33.4-33.4,77-22.3,125.2c1.9,7.4,3.7,14.8,7.4,21.3
	c24.1,57.5,89.1,92.8,165.1,85.3c10.2-0.9,20.4-2.8,31.5-5.6c48.2-12.1,85.3-28.8,116.9-55.7c7.4-6.5,15.8-13.9,23.2-21.3l-0.9-0.9
	C1485.2,502.1,1484.2,502.1,1484.2,503"/>
<path id="polygon100" class="st13" d="M943.4,357.4l85.3-120.6l-3.7-2.8l-82.6,116L943.4,357.4z"/>
<path id="polygon102" class="st13" d="M1510.2,341.6l-11.1,70.5l-14.8-13l-5.6,33.4l-29.7-26.9l31.5-33.4l9.3-10.2v0.9l11.1-11.1
	L1510.2,341.6z"/>
<path id="polygon104" class="st13" d="M1404.4,143.1l29.7-13l-54.7-70.5l-17.6,26L1404.4,143.1z"/>
<path id="path106" class="st13" d="M573.3,317.5c-139.1-168.8-388.7-77.9-477.7,0.9l3.7,6.5c20.4-12.1,42.7-22.3,64.9-32.5
	c89.1-38,174.4-49.2,242.1-37.1c24.1,2.8,49.2,10.2,71.4,25.1c30.6,17.6,53.8,41.7,67.7,73.3c24.1,55.7,2.8,129.9-53.8,191.1
	C563.1,478.9,612.2,415.8,573.3,317.5L573.3,317.5z"/>
<path id="path108" class="st13" d="M856.2,514.2c-0.9-2.8-0.9-6.5-1.9-9.3c-7.4-27.8-24.1-50.1-46.4-64.9
	c-35.2-24.1-85.3-28.8-134.5-8.4c-26,11.1-48.2,28.8-66.8,49.2c13.9-12.1,29.7-21.3,46.4-28.8c49.2-21.3,99.3-15.8,134.5,8.4
	c22.3,14.8,39,37.1,46.4,64.9c0.9,2.8,1.9,6.5,1.9,9.3c1.9,11.1,2.8,21.3,2.8,32.5c-0.9,32.5-13,64.9-32.5,92.8
	c-2.8,4.6-6.5,8.3-10.2,13c11.1-10.2,21.3-20.4,29.7-32.5c20.4-27.8,31.5-60.3,33.4-92.8C859,536.4,858.1,525.3,856.2,514.2"/>
<path id="path110" class="st13" d="M719.8,473.3c0,0,20.4-20.4,19.5-20.4c-25-0.9-36.2,23.2-37.1,25
	C707.8,475.2,713.4,474.3,719.8,473.3"/>
<path id="path112" class="st13" d="M767.2,502.1c0.9,3.7,1.9,6.5,1.9,10.2c0,5.6-0.9,10.2-3.7,14.8c3.7-1.9,33.4-16.7,22.3-46.4
	C788.5,482.6,766.2,502.1,767.2,502.1"/>
<path id="path114" class="st13" d="M652.1,519.7c0-12.1,21.3-42.7,27.8-52.9c-33.4,21.3-48.2,50.1-48.2,72.4
	c0,39,34.3,70.5,75.1,70.5c19.5,0,54.7-10.2,77.9-47.3c-12.1,8.3-42.7,26.9-59.4,26.9C684.6,589.3,652.1,558.7,652.1,519.7"/>
<path id="polygon116" class="st13" d="M938.8,555l0.9,156.8l25,1.9l-5.6-179L938.8,555z"/>
<path id="polygon118" class="st13" d="M795.9,255.4v13.9L914.7,234l8.3,151.2l20.4-27.8l-4.6-151.2L795.9,255.4z"/>
<path id="polygon120" class="st13" d="M1153.1,309.1l-110.4-102l-13.9,29.7l98.3,91.8L1153.1,309.1z"/>
<path id="path122" class="st13" d="M1136.4,499.3l-130.8-43.6L987,476.1l129.9,52c14.8,27.8,37.1,52,64.9,68.7
	c26.9,16.7,58.4,26.9,90.9,29.7v64l20.4,10.2l6.5-96.5L1136.4,499.3L1136.4,499.3z"/>
<path id="path124" class="st13" d="M1346,481.7c32.5-7.4,50.1-24.1,66.8-42.7c-12.1,10.2-71.4,23.2-81.6,26l-19.5,21.3
	C1320,486.3,1334.9,484.5,1346,481.7"/>
<path id="path126" class="st13" d="M1287.6,259.1c-59.4,7.4-90,57.5-94.6,63.1c22.3-18.5,49.2-32.5,79.8-39
	c73.3-17.6,137.3,4.6,177.2,53.8l25.1-20.4C1435.1,268.3,1360.8,241.4,1287.6,259.1"/>
<path id="path128" class="st13" d="M1486.1,501.2c7.4-5.6,19.5-12.1,26.9-19.5l-78.8-70.5c-6.5,7.4-11.1,19.5-18.6,25L1486.1,501.2
	L1486.1,501.2z"/>
<path id="path130" class="st13" d="M1891.5,690.4c-82.6-68.7-77.9-214.3-37.1-260.7l-36.2-229.1l-79.8,10.2l-3.7,20.4h60.3
	l32.5,207.8c-40.8,46.4-60.3,108.5-47.3,166c10.2,44.5,38,79.8,77,100.2c3.7,1.9,8.3,3.7,12.1,5.6l0.9,2.8l24.1,3.7
	C1893.3,718.2,1896.1,692.3,1891.5,690.4L1891.5,690.4z"/>
<path id="polygon132" class="st13" d="M1573.3,234l-3.7,20.4h90.9l26.9,147.5l20.4-20.4l-21.3-155.8L1573.3,234z"/>
<path id="polygon134" class="st13" d="M1729.1,519.7l-29.7,76.1l7.4,20.4l41.7-116L1729.1,519.7z"/>
<path id="polygon136" class="st13" d="M1641.9,472.4l-20.4,20.4l-22.3,137.3l21.3,7.4L1641.9,472.4z"/>
<path id="path138" class="st13" d="M2051,427.9c12.1,8.4,22.3,19.5,29.7,32.5c6.5,10.2,10.2,20.4,13.9,33.4
	c10.2,41.7-1.9,86.3-27.8,121.5c-2.8,3.7-5.6,7.4-8.4,10.2c10.2-9.3,140.1-104.8,13.9-230.1c-139.2-45.5-192,44.5-196.7,51
	c14.8-12.1,31.5-23.2,50.1-29.7C1972.2,398.2,2018.6,404.7,2051,427.9"/>
<path id="path140" class="st13" d="M1981.4,437.2c0,0.9,20.4-20.4,20.4-20.4c-25.1,0.9-37.1,13-35.2,18.5c-1.9,1.9-2.8,4.6-3.7,6.5
	C1967.5,439,1977.7,437.2,1981.4,437.2"/>
<path id="path142" class="st13" d="M2027.8,468.7c0.9,3.7,0.9,6.5,0.9,10.2c0,4.6-1.9,9.3-3.7,13c3.7-1.9,33.4-11.1,22.3-44.5
	C2048.2,449.2,2026.9,468.7,2027.8,468.7"/>
<path id="path144" class="st13" d="M1962,573.5c27.8,0.9,59.4-15.8,81.6-46.4c-56.6,12.1-116.9-83.5-111.3-92.8
	c-21.3,15.8-40.8,45.5-41.7,66.8C1888.7,540.1,1921.2,571.7,1962,573.5"/>
<path id="polygon146" class="st13" d="M2274.6,821.2l13,8.3l163.3-489.8l-122.4-27.8l-0.9,28.8l98.3,21.3L2274.6,821.2z"/>
<path id="polygon148" class="st13" d="M2080.7,259.1l0.9,27.8l129.9,26l50.1,237.5l20.4-20.4l-48.2-240.3L2080.7,259.1z"/>
<path id="polygon150" class="st13" d="M2180.9,529.9l-36.2,202.2l20.4,6.5l36.2-229.1L2180.9,529.9z"/>
<path id="polygon152" class="st13" d="M495.4,806.4l-60.3-220.8l-22.3,15.8l56.6,210.6L495.4,806.4z"/>
<path id="path154" class="st13" d="M479.6,475.2c-13.9,14.8-45.5,43.6-63.1,54.7l-11.1-34.3l-23.2-76.1l-14.8-51l-14.8,18.5l14.8,51
	l23.2,75.1l11.1,34.3C426.7,533.6,462,504,479.6,475.2"/>
<path id="path156" class="st12" d="M1340.4,344.4c-19.5-7.4-46.4-5.6-61.2,11.1c-3.7,3.7-10.2,13-12.1,17.6
	c13.9-11.1,39.9-13.9,55.7-7.4L1340.4,344.4L1340.4,344.4z"/>
<path id="path158" class="st12" d="M462.9,413c-1.9-11.1-13-20.4-18.5-23.2c-9.3-4.6-26.9-5.6-39-2.8c1.9,7.4,4.6,16.7,5.6,20.4
	c4.6,0.9,13,1.9,17.6,3.7c5.6,2.8,14.8,8.4,16.7,20.4c2.8,14.8,1.9,29.7-4.6,40.8C458.3,455.7,466.6,437.2,462.9,413"/>
<g id="g160" transform="translate(-5.451 -1.686)">
	<g id="g162">
		<path id="path164" class="st14" d="M498.5,413.9c-8.4-44.5-66.8-69.6-125.2-38l14.8,51l23.2,76.1l11.1,34.3
			C466,510.4,509.6,476.1,498.5,413.9L498.5,413.9z M441,483.5c-6.5-20.4-20.4-64.9-20.4-64.9s-2.8-9.3-6.5-20.4
			c12.1-1.9,24.1-0.9,33.4,3.7c5.6,2.8,14.8,8.4,16.7,20.4C469.7,446.4,461.4,465,441,483.5L441,483.5z"/>
	</g>
</g>
<g id="g166" transform="translate(-5.451 -1.686)">
	<g id="g168">
		<path id="path170" class="st15" d="M1376,343.4c-32.5-29.7-82.6-27.8-112.2,4.6c-29.7,32.5-27.8,82.6,4.6,112.2
			c2.8,2.8,5.6,4.6,8.3,6.5l104.8-118.7C1379.8,347.1,1377.9,345.3,1376,343.4z M1277.7,426.9c-10.2-18.5-8.3-42.7,7.4-59.4
			c14.8-15.8,37.1-20.4,56.6-13L1277.7,426.9L1277.7,426.9z"/>
	</g>
</g>
<path id="polygon172" class="st16" d="M1510.2,328.6l-57.5,55.7l54.7,49.2L1510.2,328.6z"/>
<path id="path174" class="st17" d="M2047.3,448.3c0.9,3.7,0.9,7.4,0.9,11.1c-0.9,22.3-21.3,39-46.4,38
	c-25.1-0.9-44.5-19.5-43.6-41.7c0.9-20.4,19.5-37.1,41.7-38c-4.6-0.9-9.3-1.9-13.9-1.9c-41.7-1.9-75.1,27.8-77,64
	c-1.9,39,29.7,71.4,70.5,72.4c41.7,1.9,75.1-27.8,77-66.8C2059.4,472.4,2054.7,459.4,2047.3,448.3"/>
<linearGradient id="path183_00000106866245212836023630000006896336550399466175_" gradientUnits="userSpaceOnUse" x1="1728.1897" y1="2149.1614" x2="1744.1187" y2="2149.1614" gradientTransform="matrix(9.2764 0 0 9.2764 -15379.707 -19415.8359)">
	<stop  offset="0" style="stop-color:#3C5AA6"/>
	<stop  offset="0.933" style="stop-color:#2B73B9"/>
	<stop  offset="1" style="stop-color:#2A75BB"/>
</linearGradient>
<path id="path183" style="fill:url(#path183_00000106866245212836023630000006896336550399466175_);" d="M789.4,492.8
	c0,22.3-20.4,39.9-44.5,39.9c-25,0-44.5-17.6-44.5-39.9c0-20.4,17.6-38,40.8-39.9c-4.6-0.9-9.3-0.9-13.9-0.9
	c-41.7,0-74.2,30.6-74.2,67.7c0,39,32.5,69.6,73.3,69.6c41.7,0,74.2-30.6,74.2-69.6c0-13.9-4.6-26-12.1-37.1
	C788.5,485.4,789.4,489.1,789.4,492.8"/>
<g id="g185" transform="translate(-5.451 -1.686)">
	<g id="g187">
		
			<linearGradient id="path196_00000173137400132832761370000015262373871806008204_" gradientUnits="userSpaceOnUse" x1="1677.9413" y1="2142.6123" x2="1943.6434" y2="2142.6123" gradientTransform="matrix(9.2764 0 0 9.2764 -15525.9531 -19429.7891)">
			<stop  offset="0" style="stop-color:#3C5AA6"/>
			<stop  offset="0.933" style="stop-color:#2B73B9"/>
			<stop  offset="1" style="stop-color:#2A75BB"/>
		</linearGradient>
		<path id="path196" style="fill:url(#path196_00000173137400132832761370000015262373871806008204_);" d="M2311.1,270.1l-18.6,76.1
			l-16.7-84.4l-228.2-50.1l1.9,127.1l34.3,7.4l-2.8,23.2c0,0-0.9,0-0.9-0.9c-42.7-22.3-95.6-25-144.7-5.6
			c-16.7,6.5-32.5,14.8-46.4,25l-34.3-217.1h-151.2l-3.7,25.1h-159.6l-18.6,111.3l-13-16.7c-39-47.3-94.6-73.3-156.8-75.1
			l135.4-72.4l-94.6-141l-170.7,196.7l29.7,36.2c-26.9,11.1-50.1,26-69.6,44.5l-146.6-129.9l-51,97.4l1.9-94.6l-229.1,73.3
			l6.5,122.5l39-10.2l5.6,62.1c-44.5-20.4-98.3-19.5-147.5,1.9c-14.8,6.5-28.8,13.9-40.8,23.2c8.3-38,6.5-75.1-8.3-108.5
			c-16.7-39-47.3-72.4-83.5-92.8c-26-17.6-56.6-27.8-89-31.5c-78.9-13.9-174.4,0-268.1,39.9c-34.3,14.8-66.8,31.5-95.6,50.1
			l-36.2,23.2l22.3,37.1l68.6,116.9l21.3,35.2l37.1-18.5l5.6-2.8l170.7,380.3l16.7,36.2l38-12.1l91.8-29.7l40.8-13l-10.2-40.8
			l-49.2-187.4c13.9-10.2,26.9-21.3,39-33.4c-2.8,22.3-0.9,45.5,4.6,66.8c13,45.5,42.7,81.6,84.4,101.1c44.5,21.3,99.3,21.3,149.4,0
			c25-11.1,48.2-26,66.8-45.5l6.5,75.1L1005,747V602.2l336.7,167V608.7c13.9-0.9,26.9-3.7,40.8-6.5c37.1-9.3,68.7-21.3,97.4-38
			l-13.9,86.3l181.8,28.8l10.2-65.9l47.3,88.1l28.8-55.7l10.2,91.8l205.9,36.2l-11.1-69.6c27.8,2.8,57.5-0.9,86.3-11.1
			c6.5-2.8,13.9-5.6,19.5-9.3l-8.3,74.2l137.3,19.5l0.9,56.6l142.9,44.5l186.5-561.2L2311.1,270.1L2311.1,270.1z M1505.9,353.6
			l9.3-10.2l-11.1,70.5l-29.7-26.9L1505.9,353.6z M1385.3,64.2l50.1,67.7l-142.9,70.5l-10.2-14.8
			C1282.3,188.5,1385.3,64.2,1385.3,64.2z M440,587.4l56.6,218.9L404.8,836L215.6,413c-10.2,5.6-29.7,14.8-46.4,23.2l-68.7-116
			c26.9-17.6,57.5-32.5,89.1-46.4c89-38,174.4-49.2,242.1-37.1c24.1,2.8,49.2,10.2,71.4,25.1c30.6,17.6,53.8,41.7,67.7,73.3
			C604.2,411.1,549.5,520.6,440,587.4L440,587.4z M864,548.4c-0.9,32.5-13,64.9-33.4,92.8c-19.5,26.9-45.5,48.2-77,62.2
			c-79.8,34.3-159.5,0-180.9-76.1c-20.4-73.3,27.8-160.5,104.8-193.9c49.2-21.3,99.3-15.8,134.5,8.4c22.3,14.8,39,37.1,46.4,64.9
			c0.9,2.8,1.9,6.5,1.9,9.3C864,527.1,864,538.2,864,548.4z M1299,703.4l-334.9-167l0.9,175.3l-86.3,12.1l-6.5-72.4
			c26.9-45.5,36.2-100.2,22.3-149.4c-7.4-26.9-21.3-51-40.8-69.6L841.7,285l-39,10.2l-1.9-37.1L940,216.3l8.3,142.9l102-143.8
			l101.1,95.6l-140.1,147.5l131.7,52c14.8,27.8,37.1,51,64.9,68.7c26.9,16.7,58.4,26.9,90.9,29.7L1299,703.4L1299,703.4z
			 M1125.6,460.3l-46.4-17.6l43.6-41.7C1120,420.4,1120.9,439.9,1125.6,460.3z M1489.2,504.8c-32.5,26.9-68.7,43.6-116.9,55.7
			c-10.2,2.8-21.3,4.6-30.6,4.6c-77,7.4-141-27.8-165.1-84.4c-2.8-6.5-5.6-13.9-7.4-21.3c-11.1-48.2-1.9-90.9,22.3-125.2
			c6.5-10.2,14.8-18.5,24.1-26.9c22.3-20.4,51-34.3,83.5-42.7c73.3-17.6,137.3,4.6,177.2,52.9l-139.2,148.4
			c9.3,1.9,24.1-0.9,35.2-3.7c33.4-8.4,51.9-26,67.7-44.5l55.7,50.1l16.7,14.8C1505,490.9,1497.6,498.4,1489.2,504.8z M1785.1,702.4
			l-30.6-200.4l-42.7,110.4l-64-138.2h-0.9l-25.1,160.5l-106.7-18.5l14.8-89c3.7-3.7,8.3-7.4,12.1-12.1l34.3-35.2l-33.4-30.6
			l36.2-213.4h107.6l26.9,147.5l30.6-170.7h77l32.5,207.8c-40.8,46.4-60.3,108.5-47.3,166c10.2,44.5,38,79.8,77,101.1
			c3.7,1.9,8.3,3.7,12.1,5.6l3.7,26.9L1785.1,702.4z M2051.4,636.6c-12.1,8.3-25.1,15.8-39,20.4c-27.8,10.2-54.7,13-79.8,7.4
			c-16.7-3.7-32.5-10.2-46.4-19.5c-21.3-15.8-37.1-38-44.5-66.8c-8.3-34.3-0.9-71.4,17.6-103.9c9.3-15.8,21.3-30.6,35.2-43.6
			c15.8-13.9,34.3-26,53.8-33.4c47.3-17.6,93.7-11.1,126.2,12.1c12.1,8.4,22.3,19.5,29.7,32.5c5.6,10.2,10.2,21.3,13,33.4
			c10.2,41.7-1.9,86.3-27.8,121.5C2081,612.5,2067.1,625.4,2051.4,636.6L2051.4,636.6z M2292.6,825.8l-78.9-23.2l-6.5-291.3
			l-39.9,224.5l-86.3-13.9l6.5-64.9c56.6-47.3,86.3-122.5,69.6-191.1c-7.4-29.7-22.3-56.6-44.5-76.1l7.4-76.1l-32.5-8.4l0.9-40.8
			l148.4,29.7l50.1,236.5l51-212.4l113.2,25L2292.6,825.8L2292.6,825.8z"/>
	</g>
</g>
<path id="path198" d="M2393.3,791.5h3.7c4.6,0,8.4-1.9,8.4-6.5c0-2.8-2.8-6.5-8.4-6.5h-3.7V791.5L2393.3,791.5z M2393.3,811h-5.6
	v-35.2c2.8-0.9,5.6-0.9,10.2-0.9c5.6,0,9.3,0.9,11.1,2.8c1.9,1.9,3.7,3.7,3.7,7.4c0,4.6-2.8,7.4-6.5,8.3c2.8,0.9,5.6,3.7,5.6,8.3
	c0.9,5.6,1.9,7.4,1.9,8.3h-5.6c-0.9-0.9-1.9-4.6-2.8-9.3c-0.9-4.6-2.8-6.5-7.4-6.5h-4.6V811L2393.3,811z M2399.8,765.5
	c-13.9,0-25.1,12.1-25.1,26.9s11.1,26.9,26,26.9c13.9,0,25.1-12.1,25.1-26.9C2424.9,777.6,2413.7,765.5,2399.8,765.5z M2399.8,760.9
	c17.6,0,30.6,13.9,30.6,31.5s-13.9,31.5-31.5,31.5c-17.6,0-31.5-13.9-31.5-31.5C2368.3,774.8,2382.2,760.9,2399.8,760.9z"/>
<g>
	<path class="st20" d="M842.7,870h123c2.8,0,4.2,1.1,4.2,3.3c0,0.3-0.1,0.8-0.3,1.7l-5.2,24.9c-0.8,3.4-2.8,5.1-6,5.1h-90.5
		L857,955.6h69c2.8,0,4.1,1.1,4.1,3.3c0,0.3-0.1,0.8-0.3,1.7l-5,23.7c-0.8,3.4-2.8,5.1-6,5.1h-69l-14,66.1c-0.8,3.4-2.8,5.1-6.2,5.1
		h-27.4c-2.8,0-4.3-1.1-4.3-3.3c0-0.3,0.1-0.8,0.3-1.7l38.2-180.4C837.4,871.7,839.4,870,842.7,870z"/>
	<path class="st20" d="M1006.1,870h27.1c2.8,0,4.2,1.2,4.2,3.7c0,0.6-0.1,1.2-0.1,1.6l-38.2,180c-0.8,3.5-2.8,5.2-6.2,5.2h-27.1
		c-2.8,0-4.3-1.2-4.3-3.5c0-0.3,0.1-0.8,0.3-1.7l38.2-180C1000.6,871.8,1002.7,870,1006.1,870z"/>
	<path class="st20" d="M1076.6,1055.3c-0.8,3.5-3,5.2-6.6,5.2h-25.7c-2.8,0-4.2-1.2-4.2-3.5c0-0.3,0.1-0.8,0.3-1.7l38.4-180.4
		c0.3-1.4,0.9-2.6,2-3.6c1.1-1,2.4-1.5,4-1.5h27.3c2.8,0,4.9,1.6,6.6,4.8l62,126.6l26.7-126.3c0.3-1.5,1-2.7,2.1-3.7
		s2.5-1.4,4.2-1.4h25.5c1.3,0,2.5,0.5,3.4,1.5c0.9,1,1.3,2.2,1,3.6l-38.4,180.4c-0.8,3.5-3,5.2-6.6,5.2h-27.1
		c-2.9,0-5.2-1.6-6.7-4.7l-60.8-130.4L1076.6,1055.3z"/>
	<path class="st20" d="M1290.1,870h63.9c14.2,0,27.2,3.3,39.2,10s21.5,15.8,28.5,27.5s10.5,24.8,10.5,39.4c0,5.9-0.7,12-2,18.5
		c-3.7,16.8-11.2,32.5-22.8,46.8c-11.5,14.3-25.5,25.9-41.8,34.6c-16.4,8.7-33.3,13.3-50.9,13.8h-65c-2.8,0-4.3-1.1-4.3-3.3
		c0-0.3,0.1-0.8,0.3-1.7l38.2-180.4C1284.8,871.7,1286.8,870,1290.1,870z M1394.3,949.3c0-8.8-1.8-16.6-5.3-23.3
		s-8.9-11.9-16.1-15.7c-7.2-3.8-16.2-5.7-26.9-5.7h-30.8l-25.7,121.3h28.1c10.5,0,21.2-2.7,31.9-8.2s20-12.8,27.9-22.1
		c7.8-9.3,12.9-19.4,15.1-30.3C1393.7,959.9,1394.3,954.6,1394.3,949.3z"/>
	<path class="st20" d="M1489.4,870h125.4c2.9,0,4.4,1.1,4.4,3.3c0,0.3-0.1,0.8-0.3,1.7l-5.2,24.9c-0.8,3.4-2.9,5.1-6.3,5.1h-92.9
		l-8.3,38.9h70.9c3.2,0,4.8,1.2,4.8,3.7c0,0.6-0.1,1.1-0.1,1.5l-5.2,24.3c-0.7,3.4-3,5.1-6.8,5.1H1499l-10,47.1h95.3
		c2.9,0,4.4,1.2,4.4,3.6c0,0.6-0.1,1.1-0.1,1.5l-5.2,24.7c-0.8,3.4-2.9,5.1-6.4,5.1h-127.8c-2.8,0-4.1-1.1-4.1-3.3
		c0-0.3,0.1-0.8,0.3-1.7l38.2-180.4C1484.2,871.7,1486.2,870,1489.4,870z"/>
	<path class="st20" d="M1658.3,870h78.9c10.1,0,19,2.3,26.7,6.8s13.8,10.7,18,18.4s6.3,16.2,6.3,25.3c0,4-0.4,8-1.2,12
		c-2.3,10.6-7.5,20.7-15.4,30.3c-8,9.6-17.4,17.2-28.3,22.8l20.2,69.4c0.4,1.3,0.1,2.6-0.8,3.7c-0.9,1.2-2.1,1.7-3.6,1.7H1730
		c-1.4,0-2.5-0.3-3.3-0.9c-0.8-0.6-1.4-1.8-1.8-3.6l-17.5-61.4h-43.1l-12.8,60.8c-0.8,3.4-2.8,5.1-6.2,5.1h-27.4
		c-2.8,0-4.1-1.1-4.1-3.3c0-0.3,0.1-0.8,0.3-1.7l38.2-180.4C1653.2,871.7,1655.2,870,1658.3,870z M1671.3,961.9h38.6
		c6,0,12-1.4,18.2-4.1c6.2-2.7,11.4-6.4,15.9-11c4.5-4.6,7.3-9.6,8.4-14.9c0.5-2.3,0.8-4.5,0.8-6.7c0-7-2.4-12.8-7.2-17.2
		c-4.8-4.5-11.4-6.7-19.9-6.7h-42.7L1671.3,961.9z"/>
</g>
</svg>
